<svg xmlns="http://www.w3.org/2000/svg" width="512" height="512"><defs><radialGradient id="tomato" cx=".3" cy=".2"><stop stop-color="#ec8864"/><stop offset="1" stop-color="#c74932"/></radialGradient><radialGradient id="orange" cx=".3" cy=".2"><stop stop-color="#f5c16a"/><stop offset="1" stop-color="#e6a03a"/></radialGradient><radialGradient id="egg" cx=".3" cy=".2"><stop stop-color="#f8e9ce"/><stop offset="1" stop-color="#d8b78d"/></radialGradient></defs><rect width="512" height="512" fill="#edf1e6"/><circle cx="259" cy="249" r="185" fill="#fff" opacity=".26"/><ellipse cx="264" cy="418" rx="153" ry="20" fill="#35442a" opacity=".08"/><g transform="rotate(-11 256 256)"><rect x="131" y="116" width="234" height="303" rx="10" fill="#567d68"/><rect x="149" y="116" width="216" height="287" rx="6" fill="#8ca483"/><path d="M171 366h168v26H171" fill="#f9edcf"/><path d="M188 177h121m-121 20h85" stroke="#e4eacb" stroke-width="7"/><g transform="translate(260 315) scale(0.64)"><path d="M0 0Q-72-13-41-79Q22-93 0 0" fill="#568744"/><path d="M0 0Q70-29 52-87Q-6-99 0 0" fill="#83a950"/><path d="M0 0Q-10-86 5-114Q40-65 0 0" fill="#3a783e"/></g></g></svg>